:SAMPLES-PER-SECOND 30
:FULLY-SPECIFIED
:DEGREES
668
root  56.0641 38.3917 11.8312 177.806 -7.83482 175.828
RightUpLeg  0.143094 -20.9113 -25.7244
RightLeg  9.49233 -15.933 -2.16052
RightFoot  3.22369 -0.730448 5.9878
RightToes  4.6566e-010 0 -3.6325e-017
Spine  9.18624 -6.25321 -9.73828
Spine1  7.85167 -9.06676 6.94789
HEad  -14.7935 24.1828 -15.2346
LeftShoulder1  0.553812 1.99918 -30.7227
LeftArm  3.46959 -21.0831 -44.7012
LeftForeArm  14.0631 -68.1618 -28.4981
LeftHand  -0.189718 -0.970386 3.57365
RightShoulder  -0.844146 -6.0232 26.9309
RightArm  -20.4522 -28.5034 26.5653
RightForeArm  130.286 64.4844 155.285
RightHand  -0.615999 8.6087 -5.47727
LeftUpLeg  -9.99373 37.7511 1.28327
LeftLeg  22.2129 10.9982 5.23133
LeftFoot  -6.35483 -0.00763366 1.02948
LeftToes  -4.59298e-010 2.08438e-011 -1.27151e-011
669
root  55.0829 38.3033 11.7811 177.168 -10.7398 175.836
RightUpLeg  0.0260748 -14.5574 -25.0953
RightLeg  10.1748 -7.71256 -3.14604
RightFoot  -1.43224 -0.48741 5.23871
RightToes  4.6566e-010 0 -3.6325e-017
Spine  9.70189 -5.81185 -9.79664
Spine1  7.74126 -8.68625 6.66568
HEad  -16.0787 21.3534 -16.6684
LeftShoulder1  0.361063 2.53969 -31.4634
LeftArm  3.57824 -18.4843 -43.3972
LeftForeArm  15.7294 -69.4362 -30.6849
LeftHand  -0.307404 -0.655508 6.0474
RightShoulder  -0.795783 -5.87213 26.9495
RightArm  -18.6129 -29.3788 26.1981
RightForeArm  128.346 65.6205 153.822
RightHand  -0.936088 7.86556 -8.53449
LeftUpLeg  -9.77958 35.0943 -0.155118
LeftLeg  23.6514 11.0311 5.5821
LeftFoot  -8.16186 -0.00974866 2.10952
LeftToes  -4.59298e-010 2.08438e-011 -1.27151e-011
670
root  54.0777 38.3008 11.6837 176.722 -12.9772 175.476
RightUpLeg  -1.8287 -4.20678 -24.3187
RightLeg  13.7731 -2.6258 -2.4229
RightFoot  -3.75029 0.0587221 -0.98888
RightToes  4.6566e-010 0 -3.6325e-017
Spine  9.64434 -5.6055 -10.1297
Spine1  8.02161 -8.52109 6.572
HEad  -14.3216 19.4771 -16.4301
LeftShoulder1  0.0779513 3.3007 -32.0565
LeftArm  2.99582 -15.631 -41.5957
LeftForeArm  19.7391 -70.6661 -32.722
LeftHand  -0.107723 -1.3777 1.99802
RightShoulder  -0.59882 -5.30847 26.461
RightArm  -16.7386 -28.5399 26.6288
RightForeArm  128.988 67.7546 151.222
RightHand  -0.677132 8.47767 -6.03347
LeftUpLeg  -8.55753 33.1695 -1.86273
LeftLeg  23.4173 11.1395 5.58453
LeftFoot  -9.37679 0.00135871 3.17037
LeftToes  -4.59298e-010 2.08438e-011 -1.27151e-011
671
root  53.1672 38.215 11.5203 176.102 -16.1363 174.976
RightUpLeg  -2.68222 2.4268 -23.8702
RightLeg  17.5499 -0.220939 -0.140709
RightFoot  -6.25201 -0.0923902 1.09001
RightToes  4.6566e-010 0 -3.6325e-017
Spine  9.39926 -5.44336 -10.9289
Spine1  8.84166 -8.4699 6.05184
HEad  -12.2426 16.7094 -15.7632
LeftShoulder1  0.168338 3.06015 -31.8495
LeftArm  1.82804 -12.5976 -40.9044
LeftForeArm  21.8748 -71.5275 -34.5058
LeftHand  -0.130461 -0.665564 2.58217
RightShoulder  -0.637965 -5.40544 26.8473
RightArm  -14.7561 -27.0741 26.6775
RightForeArm  127.387 69.5417 148.376
RightHand  -0.596311 8.77175 -5.25868
LeftUpLeg  -7.16034 30.2517 -3.45539
LeftLeg  23.7257 11.4351 5.78608
LeftFoot  -10.9228 0.0529077 3.46282
LeftToes  -4.59298e-010 2.08438e-011 -1.27151e-011
672
root  52.3219 38.1944 11.363 175.789 -19.7764 174.973
RightUpLeg  -4.14076 1.95778 -22.0063
RightLeg  21.7724 3.03131 1.10228
RightFoot  -7.34974 -0.123536 2.09125
RightToes  4.6566e-010 0 -3.6325e-017
Spine  9.35389 -5.44244 -11.6014
Spine1  8.93945 -8.72884 6.41364
HEad  -10.5936 14.9416 -15.8675
LeftShoulder1  0.0901229 3.26721 -31.9609
LeftArm  1.05756 -10.235 -39.9925
LeftForeArm  23.5565 -72.0961 -35.7807
LeftHand  -0.0722104 -0.900533 1.433
RightShoulder  -0.657872 -5.43788 27.3031
RightArm  -12.6248 -25.9651 26.2676
RightForeArm  125.339 70.8517 145.809
RightHand  -0.615915 8.7805 -5.42115
LeftUpLeg  -5.86348 26.7822 -4.54858
LeftLeg  23.4562 11.7104 5.42027
LeftFoot  -11.9815 0.0942395 3.94648
LeftToes  -4.59298e-010 2.08438e-011 -1.27151e-011
673
root  51.4435 38.2583 11.1594 175.512 -23.1512 175.084
RightUpLeg  -6.01449 0.758002 -19.5354
RightLeg  26.0043 1.97761 0.809903
RightFoot  -7.96429 -0.12197 2.29311
RightToes  4.6566e-010 0 -3.6325e-017
Spine  8.98501 -5.32477 -11.6442
Spine1  9.40209 -8.66008 6.40218
HEad  -9.4669 13.071 -15.8905
LeftShoulder1  0.0925092 3.25876 -31.6306
LeftArm  0.106208 -8.08901 -39.7513
LeftForeArm  25.839 -72.7298 -37.2309
LeftHand  -0.072147 -1.04158 1.4127
RightShoulder  -0.751939 -5.66595 28.1431
RightArm  -10.9572 -25.0831 25.7419
RightForeArm  123.006 71.8776 143.446
RightHand  -0.613623 9.33558 -5.21982
LeftUpLeg  -3.81432 21.5522 -5.38254
LeftLeg  22.1198 14.1015 4.70192
LeftFoot  -12.5398 0.12389 4.66148
LeftToes  -4.59298e-010 2.08438e-011 -1.27151e-011
